<?xml version="1.0" encoding="UTF-8"?>
<svg xmlns="http://www.w3.org/2000/svg" xmlns:xlink="http://www.w3.org/1999/xlink" viewBox="0 0 379.72 88.41">
  <defs>
    <style>
      .cls-1 {
        fill: url(#Degradado_sin_nombre_16);
        mix-blend-mode: multiply;
        opacity: .45;
      }

      .cls-1, .cls-2 {
        stroke-width: 0px;
      }

      .cls-3 {
        isolation: isolate;
      }

      .cls-2 {
        fill: #fff;
      }
    </style>
    <linearGradient id="Degradado_sin_nombre_16" data-name="Degradado sin nombre 16" x1="170.53" y1="109.53" x2="247.01" y2="-114.12" gradientUnits="userSpaceOnUse">
      <stop offset="0" stop-color="#a1bafb"/>
      <stop offset="1" stop-color="#ffc1e1" stop-opacity="0"/>
    </linearGradient>
  </defs>
  <g class="cls-3">
    <g id="Layer_2" data-name="Layer 2">
      <g id="OBJECTS">
        <g>
          <path class="cls-2" d="M379.72,46.89c-6.56,5.69-16.88,4.87-24.38.49-7.5-4.38-12.85-11.56-18.12-18.45-5.27-6.89-10.95-13.91-18.75-17.71s-18.34-3.41-23.97,3.2c-8.21-11.73-18.73-15.62-28.57-14.08-9.84,1.54-18.66,8.46-22.5,17.64-1.61,3.84-2.4,8.04-5.3,11.27-.97,1.07-2.16,1.96-3.53,2.43-5.12,1.78-8.69-2.68-13.09-4.41-3.83-1.51-8.46-.76-11.63,1.87-.05.04-.11.09-.16.13-4.2,3.63-10.43,3.57-14.41-.3-8.15-7.91-16.79-14.46-26.68-18.82-14.26-6.3-31.84-7.31-44.78,1.4-8.71,5.86-14.26,15.24-20.89,23.39-6.62,8.15-15.7,15.71-26.2,15.36-10.87-.37-20.35-9.18-31.2-8.52-8,.49-14.65,5.99-21.21,10.61-6.56,4.62-14.77,8.72-24.34,7.03,6.02,6.49,15.99,7.36,24.77,6.21,8.78-1.15,17.5-3.88,26.3-2.95,11.18,1.19,20.84,8.08,31.45,11.83,17.97,6.35,38.27,1.9,52.75-7.73,12.62-8.39,29.86-4.9,43.97.65,14.11,5.54,27.11,13.87,41.67,18.08,26.83,7.77,57.61-.19,78.26-19.86,6.41,8.32,18.95,11.19,28.34,6.5,5.51-2.75,9.75-7.64,15.35-10.22,6.34-2.93,13.63-2.57,20.53-3.69,6.89-1.12,14.37-4.7,16.34-11.3"/>
          <path class="cls-1" d="M327.51,72.11c5.51-2.75,9.75-7.64,15.35-10.22,6.34-2.93,13.63-2.57,20.53-3.69,3.75-.61,7.67-1.95,10.78-4.11-10.14,3.57-17.07-2.85-23.59-.08-7.91,3.36-17.01,3.46-25.62-.99-8.6-4.45-9.3-20.27-19.58-21.26-3.32-.32-5.95.72-7.98,2.27-3.66,2.79-8.85,2.05-11.39-1.79-4.58-6.92-11.98-14.17-21.87-11.17-17.6,5.34-9.49,31.65-19.38,39.16s-14.44-4.15-23.93-5.54c-2.77-.4-5.22.08-7.3.98-3.91,1.68-8.46.09-10.15-3.81-1.26-2.92-3.24-5.47-6.35-6.07-3.2-.62-6.37.31-9.04,1.66-3.98,2.02-8.82.3-10.64-3.78-5.12-11.48-15.72-29.65-31.1-28.15-22.35,2.18-30.66,25.32-37.19,39.16-6.53,13.85-22.15,11.27-39.16.59-17.01-10.68-24.33-2.77-41.74,4.75-9.08,3.92-18.72,3.1-25.87,1.42,6.07,4.6,14.73,5.16,22.47,4.14,8.78-1.15,17.5-3.88,26.3-2.95,11.18,1.19,20.84,8.08,31.45,11.83,17.97,6.35,38.27,1.9,52.75-7.73,12.62-8.39,29.86-4.9,43.97.65,14.11,5.54,27.11,13.87,41.67,18.08,26.83,7.77,57.61-.19,78.26-19.87,6.41,8.32,18.95,11.19,28.34,6.5Z"/>
        </g>
      </g>
    </g>
  </g>
</svg>