<?xml version="1.0" encoding="UTF-8"?>
<svg xmlns="http://www.w3.org/2000/svg" xmlns:xlink="http://www.w3.org/1999/xlink" viewBox="0 0 191.15 68.11">
  <defs>
    <style>
      .cls-1 {
        fill: url(#Degradado_sin_nombre_16);
        mix-blend-mode: multiply;
        opacity: .45;
      }

      .cls-1, .cls-2 {
        stroke-width: 0px;
      }

      .cls-3 {
        isolation: isolate;
      }

      .cls-2 {
        fill: #fff;
      }
    </style>
    <linearGradient id="Degradado_sin_nombre_16" data-name="Degradado sin nombre 16" x1="78.16" y1="67.97" x2="143.83" y2="-24.6" gradientUnits="userSpaceOnUse">
      <stop offset="0" stop-color="#a1bafb"/>
      <stop offset="1" stop-color="#ffc1e1" stop-opacity="0"/>
    </linearGradient>
  </defs>
  <g class="cls-3">
    <g id="Layer_2" data-name="Layer 2">
      <g id="OBJECTS">
        <g>
          <path class="cls-2" d="M191.15,40.58c-15.5,3.21-37.08-2.61-46.77-15.13-6.37-8.24-10.28-19.3-19.74-23.69-7.44-3.45-16.53-1.51-23.36,3.03-6.83,4.55-11.82,11.34-16.34,18.18-4.35-10.05-14.7-16.07-25.28-16.14-10.59-.08-21.02,5.79-26.46,14.87-4,6.68-5.71,15.19-12.02,19.75-5.99,4.33-15.24,3.2-21.17.89,3.17,8.29,13.33,11.55,22.21,11.41,8.87-.14,17.78-2.57,26.53-1.05,10.18,1.77,18.69,8.61,28.32,12.36,18.91,7.34,42.22,1.15,56.25-15.38,4.06,5.84,12.97,7.58,18.92,3.69,3.4-2.22,6.05-6.02,10.07-6.55,4.68-.61,9.13,1.9,13.7,3.03,7.63,1.89,15.31-1.71,15.14-9.27"/>
          <path class="cls-1" d="M133.31,49.67c4.06,5.84,12.97,7.58,18.92,3.69,3.4-2.22,6.05-6.02,10.07-6.55,4.68-.61,9.13,1.9,13.7,3.03,6.56,1.62,13.14-.81,14.75-6.33-5.16,4.42-13.42,4.88-19.99,1.68-8.51-4.15-9.99-1.09-16.42-.3s-6.23-7.81-11.57-9.2-9.4,3.76-9.4,3.76c0,0-5.14-26.31-22.55-26.9-17.41-.59-23.74,28.88-23.74,28.88,0,0-2.16-18.46-19.19-16.62-17.02,1.84-16.81,15.23-36,22.31-13.23,4.88-25.42-.52-31.72-4.35,3.36,7.96,13.3,11.1,22.01,10.96,8.87-.14,17.78-2.57,26.53-1.05,10.18,1.77,18.69,8.61,28.32,12.36,18.91,7.34,42.22,1.15,56.25-15.38Z"/>
        </g>
      </g>
    </g>
  </g>
</svg>