<?xml version="1.0" encoding="UTF-8"?>
<svg xmlns="http://www.w3.org/2000/svg" xmlns:xlink="http://www.w3.org/1999/xlink" viewBox="0 0 199.45 66.57">
  <defs>
    <style>
      .cls-1 {
        fill: url(#Degradado_sin_nombre_16);
        mix-blend-mode: multiply;
        opacity: .45;
      }

      .cls-1, .cls-2 {
        stroke-width: 0px;
      }

      .cls-3 {
        isolation: isolate;
      }

      .cls-2 {
        fill: #fff;
      }
    </style>
    <linearGradient id="Degradado_sin_nombre_16" data-name="Degradado sin nombre 16" x1="77.06" y1="71.8" x2="140.89" y2="2.44" gradientUnits="userSpaceOnUse">
      <stop offset="0" stop-color="#a1bafb"/>
      <stop offset="1" stop-color="#ffc1e1" stop-opacity="0"/>
    </linearGradient>
  </defs>
  <g class="cls-3">
    <g id="Layer_2" data-name="Layer 2">
      <g id="OBJECTS">
        <g>
          <path class="cls-2" d="M199.45,45.2c-7.88,3.04-15.59.34-19.03-2.03-5.19-3.59-8.28-6.66-11.61-12.01-3.32-5.36-5.82-11.24-9.63-16.26C150.52,3.48,134.99-2.24,120.99.82c-13.99,3.06-25.72,14.74-28.83,28.72-4.58-8.57-13.87-12.37-21.81-10.88-7.94,1.49-14.53,7.1-19.55,13.43-2.7,3.4-5.7,7.42-10.03,7.6-6.13.26-10.5-7.45-16.62-7.01-3.08.22-5.59,2.51-7.54,4.9-1.95,2.39-3.7,5.07-6.34,6.67-2.64,1.6-6.57,1.64-10.25-.28,2.72,4.96,9,7.65,14.47,6.21,2.65-.7,5.08-2.25,7.81-2.51,4.93-.47,9.11,3.27,13.54,5.49,8.12,4.07,18.61,2.81,25.34-1.36,4.38,4.31,9.25,8.25,14.9,10.67,5.65,2.42,12.16,3.23,17.98,1.27,4.09-1.38,7.78-4.07,12.07-4.53,6.51-.71,12.3,3.78,18.48,5.94,8.72,3.05,18.99,1.14,26.25-5.01,1.81,1.11,3.82,1.92,5.93,2.14,2.11.22,4.32-.19,6.09-1.35,2.24-1.47,3.58-3.96,5.53-5.81,2.76-2.62,6.71-3.82,10.5-3.54,4.03.3,8.04,2.16,11.99,1.27,3.59-.81,6.31-3.73,8.56-7.65"/>
          <path class="cls-1" d="M173.22,44.14c-8.84-5.14-15.3,6.59-24.4,2.77-9.1-3.82-10.15-21.76-32.57-24.4-22.42-2.64-25.78,26.44-25.78,26.44,0,0-4.15-17.21-15.23-19.78-11.08-2.57-16.81,5.08-19.91,13.65-3.1,8.57-10.88,9.96-19.19,3.82-8.31-6.13-14.57-3.1-23.34-.07-4.16,1.44-8.08.81-11.07-.24,3.16,3.39,8.23,5.03,12.74,3.84,2.65-.7,5.08-2.25,7.81-2.51,4.93-.47,9.11,3.27,13.54,5.49,8.12,4.07,18.61,2.81,25.34-1.36,4.38,4.31,9.25,8.25,14.9,10.67,5.65,2.42,12.16,3.23,17.98,1.27,4.09-1.38,7.78-4.07,12.07-4.53,6.51-.71,12.3,3.78,18.48,5.94,8.72,3.04,18.99,1.14,26.25-5.01,1.81,1.11,3.82,1.92,5.93,2.14,2.11.22,4.32-.19,6.09-1.35,2.24-1.47,3.58-3.96,5.53-5.81,2.76-2.62,6.71-3.82,10.5-3.54,4.03.3,8.04,2.16,11.99,1.27,2.37-.53,4.35-2,6.08-4.05-7.54,2.47-16.88-.66-23.75-4.66Z"/>
        </g>
      </g>
    </g>
  </g>
</svg>