<svg width="302" height="170" viewBox="0 0 302 170" fill="none" xmlns="http://www.w3.org/2000/svg">
<mask id="mask0_248_106" style="mask-type:alpha" maskUnits="userSpaceOnUse" x="0" y="0" width="302" height="170">
<path d="M25.5213 1C11.9786 1 1 12.0288 1 25.6334V134.021C1 147.625 11.9786 158.654 25.5214 158.654H254.06C262.591 158.654 268.521 160.941 274.804 163.364C281.886 166.095 289.418 169 301.632 169C284.949 166.021 280.673 146.092 280.528 134.899C280.538 134.607 280.543 134.315 280.543 134.021V25.6334C280.543 12.0288 269.565 1 256.022 1H25.5213Z" fill="white" fill-opacity="0.02" stroke="white"/>
</mask>
<g mask="url(#mask0_248_106)">
<g opacity="0.5" filter="url(#filter0_f_248_106)">
<circle cx="51" cy="109" r="50" fill="url(#paint0_linear_248_106)"/>
</g>
<g opacity="0.5" filter="url(#filter1_f_248_106)">
<circle cx="231" cy="51" r="50" fill="url(#paint1_linear_248_106)"/>
</g>
<g opacity="0.5" filter="url(#filter2_f_248_106)">
<circle cx="131" cy="83" r="50" fill="url(#paint2_linear_248_106)"/>
</g>
</g>
<defs>
<filter id="filter0_f_248_106" x="-99" y="-41" width="300" height="300" filterUnits="userSpaceOnUse" color-interpolation-filters="sRGB">
<feFlood flood-opacity="0" result="BackgroundImageFix"/>
<feBlend mode="normal" in="SourceGraphic" in2="BackgroundImageFix" result="shape"/>
<feGaussianBlur stdDeviation="50" result="effect1_foregroundBlur_248_106"/>
</filter>
<filter id="filter1_f_248_106" x="81" y="-99" width="300" height="300" filterUnits="userSpaceOnUse" color-interpolation-filters="sRGB">
<feFlood flood-opacity="0" result="BackgroundImageFix"/>
<feBlend mode="normal" in="SourceGraphic" in2="BackgroundImageFix" result="shape"/>
<feGaussianBlur stdDeviation="50" result="effect1_foregroundBlur_248_106"/>
</filter>
<filter id="filter2_f_248_106" x="-19" y="-67" width="300" height="300" filterUnits="userSpaceOnUse" color-interpolation-filters="sRGB">
<feFlood flood-opacity="0" result="BackgroundImageFix"/>
<feBlend mode="normal" in="SourceGraphic" in2="BackgroundImageFix" result="shape"/>
<feGaussianBlur stdDeviation="50" result="effect1_foregroundBlur_248_106"/>
</filter>
<linearGradient id="paint0_linear_248_106" x1="25.5306" y1="59" x2="83.1819" y2="63.0325" gradientUnits="userSpaceOnUse">
<stop stop-color="#78FFA3"/>
<stop offset="0.3" stop-color="#6FABFF"/>
<stop offset="0.655" stop-color="#8CC6FF"/>
<stop offset="1" stop-color="#00FFD5"/>
</linearGradient>
<linearGradient id="paint1_linear_248_106" x1="231" y1="1" x2="231" y2="101" gradientUnits="userSpaceOnUse">
<stop stop-color="#FF00FB"/>
<stop offset="0.5" stop-color="#D924FD"/>
<stop offset="1" stop-color="#544BFF"/>
</linearGradient>
<linearGradient id="paint2_linear_248_106" x1="181" y1="83" x2="81" y2="83" gradientUnits="userSpaceOnUse">
<stop stop-color="#FF4044" stop-opacity="0.99"/>
<stop offset="1" stop-color="#FF0091"/>
</linearGradient>
</defs>
</svg>
