<svg width="353" height="164" viewBox="0 0 353 164" fill="none" xmlns="http://www.w3.org/2000/svg">
<mask id="mask0_248_90" style="mask-type:alpha" maskUnits="userSpaceOnUse" x="0" y="0" width="353" height="164">
<path d="M323.37 1C339.182 1 352 11.6349 352 24.7537V129.27C352 142.389 339.182 153.023 323.37 153.023H56.5415C46.5813 153.023 39.6584 155.229 32.322 157.565C24.0535 160.199 15.2597 163 0.999989 163C20.4776 160.127 25.4702 140.91 25.6393 130.117C25.6274 129.836 25.6214 129.553 25.6214 129.27V24.7537C25.6214 11.6349 38.4394 1 54.2511 1H323.37Z" fill="white" fill-opacity="0.02" stroke="white"/>
</mask>
<g mask="url(#mask0_248_90)">
<g opacity="0.5" filter="url(#filter0_f_248_90)">
<circle cx="50" cy="50" r="50" transform="matrix(-1 0 0 1 330 59)" fill="url(#paint0_linear_248_90)"/>
</g>
<g opacity="0.5" filter="url(#filter1_f_248_90)">
<circle cx="50" cy="50" r="50" transform="matrix(-1 0 0 1 150 1)" fill="url(#paint1_linear_248_90)"/>
</g>
<g opacity="0.5" filter="url(#filter2_f_248_90)">
<circle cx="50" cy="50" r="50" transform="matrix(-1 0 0 1 250 33)" fill="url(#paint2_linear_248_90)"/>
</g>
</g>
<defs>
<filter id="filter0_f_248_90" x="130" y="-41" width="300" height="300" filterUnits="userSpaceOnUse" color-interpolation-filters="sRGB">
<feFlood flood-opacity="0" result="BackgroundImageFix"/>
<feBlend mode="normal" in="SourceGraphic" in2="BackgroundImageFix" result="shape"/>
<feGaussianBlur stdDeviation="50" result="effect1_foregroundBlur_248_90"/>
</filter>
<filter id="filter1_f_248_90" x="-50" y="-99" width="300" height="300" filterUnits="userSpaceOnUse" color-interpolation-filters="sRGB">
<feFlood flood-opacity="0" result="BackgroundImageFix"/>
<feBlend mode="normal" in="SourceGraphic" in2="BackgroundImageFix" result="shape"/>
<feGaussianBlur stdDeviation="50" result="effect1_foregroundBlur_248_90"/>
</filter>
<filter id="filter2_f_248_90" x="50" y="-67" width="300" height="300" filterUnits="userSpaceOnUse" color-interpolation-filters="sRGB">
<feFlood flood-opacity="0" result="BackgroundImageFix"/>
<feBlend mode="normal" in="SourceGraphic" in2="BackgroundImageFix" result="shape"/>
<feGaussianBlur stdDeviation="50" result="effect1_foregroundBlur_248_90"/>
</filter>
<linearGradient id="paint0_linear_248_90" x1="24.5306" y1="2.21149e-05" x2="82.1819" y2="4.03248" gradientUnits="userSpaceOnUse">
<stop stop-color="#78FFA3"/>
<stop offset="0.3" stop-color="#6FABFF"/>
<stop offset="0.655" stop-color="#8CC6FF"/>
<stop offset="1" stop-color="#00FFD5"/>
</linearGradient>
<linearGradient id="paint1_linear_248_90" x1="50" y1="0" x2="50" y2="100" gradientUnits="userSpaceOnUse">
<stop stop-color="#FF00FB"/>
<stop offset="0.5" stop-color="#D924FD"/>
<stop offset="1" stop-color="#544BFF"/>
</linearGradient>
<linearGradient id="paint2_linear_248_90" x1="100" y1="50" x2="0" y2="50" gradientUnits="userSpaceOnUse">
<stop stop-color="#FF4044" stop-opacity="0.99"/>
<stop offset="1" stop-color="#FF0091"/>
</linearGradient>
</defs>
</svg>
